<?xml version="1.0" standalone="no"?>
<!DOCTYPE svg PUBLIC "-//W3C//DTD SVG 20010904//EN"
 "http://www.w3.org/TR/2001/REC-SVG-20010904/DTD/svg10.dtd">
<svg version="1.0" xmlns="http://www.w3.org/2000/svg"
 width="9222.000000pt" height="4814.000000pt" viewBox="0 0 9222.000000 4814.000000"
 preserveAspectRatio="xMidYMid meet">

<g transform="translate(0.000000,4814.000000) scale(0.100000,-0.100000)"
fill="#000000" stroke="none">
<path d="M70670 35773 c-489 -25 -836 -60 -1230 -124 -1253 -204 -2365 -622
-3400 -1278 -1412 -895 -2507 -2216 -3129 -3777 -250 -629 -426 -1339 -511
-2059 -47 -405 -54 -547 -55 -1090 0 -515 2 -564 41 -960 163 -1673 820 -3209
1916 -4480 952 -1103 2293 -1972 3771 -2445 748 -240 1501 -377 2422 -442 235
-16 1088 -16 1340 0 862 57 1588 182 2300 397 1557 471 2847 1312 3833 2500
70 85 88 113 79 121 -198 184 -2870 2594 -2875 2594 -5 0 -51 -50 -103 -112
-111 -133 -413 -440 -554 -563 -806 -706 -1669 -1084 -2700 -1180 -193 -18
-789 -13 -985 9 -1279 142 -2318 707 -3015 1641 -504 676 -788 1460 -877 2420
-17 186 -17 804 0 995 69 763 270 1430 606 2010 494 851 1226 1457 2176 1801
738 268 1672 346 2485 208 424 -71 823 -201 1220 -394 374 -183 698 -399 1047
-699 160 -138 503 -484 618 -623 41 -51 78 -91 83 -90 15 4 2877 2599 2877
2609 0 6 -32 49 -72 97 -619 740 -1329 1333 -2143 1789 -1205 675 -2548 1042
-4105 1122 -171 9 -910 11 -1060 3z"/>
<path d="M32111 32662 c-679 -1538 -2269 -5139 -3533 -8002 -1264 -2863 -2301
-5213 -2304 -5222 -5 -17 109 -18 2308 -18 l2313 0 614 1521 c338 836 623
1538 632 1560 l18 39 3391 -2 3391 -3 605 -1495 c332 -822 616 -1523 630
-1557 l26 -63 2360 0 c1884 0 2359 3 2355 12 -3 7 -548 1239 -1212 2738 -664
1499 -2246 5070 -3515 7935 -1269 2866 -2322 5243 -2340 5283 l-33 72 -2236 0
-2236 0 -1234 -2798z m4114 -3332 c368 -916 829 -2065 1026 -2555 l358 -890
-2056 -3 c-1131 -1 -2058 0 -2061 3 -2 2 431 1088 963 2412 533 1324 996 2476
1029 2560 34 83 64 149 67 145 3 -4 306 -756 674 -1672z"/>
<path d="M46200 27440 l0 -8020 2270 0 2270 0 0 2130 0 2130 1239 0 1240 0
1453 -2129 1453 -2130 2428 0 c1335 -1 2427 1 2427 4 0 4 -1116 1632 -2948
4300 -272 396 -496 724 -498 730 -3 6 22 23 53 39 107 51 337 179 478 264 807
490 1444 1132 1886 1902 411 717 636 1497 700 2435 13 194 7 853 -10 1030 -74
766 -246 1403 -541 2010 -401 823 -1031 1542 -1815 2070 -825 556 -1823 934
-2955 1119 -292 48 -522 75 -1020 118 -100 8 -1183 12 -4122 15 l-3988 3 0
-8020z m7390 4440 c533 -33 943 -129 1315 -309 245 -119 423 -247 602 -434
367 -384 552 -876 570 -1513 21 -743 -178 -1313 -604 -1731 -349 -342 -851
-567 -1463 -653 -300 -43 -295 -43 -1812 -47 l-1458 -4 0 2351 0 2350 1343 0
c789 0 1410 -4 1507 -10z"/>
<path d="M9127 31332 l-2097 -3617 42 -7 c24 -4 196 -14 383 -23 1081 -51
2376 -320 3565 -740 3278 -1160 6043 -3565 7655 -6659 92 -176 259 -540 244
-531 -4 3 -272 325 -594 715 -536 649 -600 723 -758 873 -454 433 -889 781
-1407 1126 -1482 987 -3133 1562 -4910 1711 -526 44 -1213 42 -1760 -6 -1530
-132 -3010 -602 -4335 -1377 -371 -216 -781 -494 -1120 -757 -1651 -1283
-2871 -3012 -3518 -4985 -315 -959 -484 -1945 -513 -2995 -5 -201 -3 -251 20
-469 14 -134 26 -250 26 -257 0 -12 478 -14 3200 -14 2206 0 3200 3 3200 10 0
6 -67 228 -150 493 -153 495 -175 586 -219 897 -88 617 -86 1295 5 1915 209
1430 875 2748 1907 3776 1074 1071 2465 1741 3972 1913 468 54 1036 54 1515 0
1358 -151 2640 -721 3681 -1637 1045 -919 1785 -2158 2099 -3515 125 -537 177
-1049 167 -1632 -6 -342 -21 -551 -63 -840 -42 -297 -68 -399 -222 -895 l-150
-480 1200 -3 c660 -1 1736 -1 2392 0 l1192 3 -319 550 c-176 303 -491 847
-702 1210 -210 363 -440 759 -510 880 -134 230 -593 1021 -870 1500 -89 154
-219 377 -287 495 -69 118 -527 908 -1018 1755 -491 847 -948 1635 -1015 1750
-67 116 -182 314 -255 440 -73 127 -204 352 -290 500 -127 219 -1758 3031
-2291 3951 -2343 4042 -4985 8594 -4989 8594 -3 0 -949 -1628 -2103 -3618z"/>
<path d="M34180 16941 c-129 -42 -200 -135 -200 -264 0 -82 15 -122 69 -180
58 -62 126 -90 221 -90 118 0 202 47 254 143 74 135 30 289 -103 363 -46 26
-67 31 -135 34 -45 1 -92 -1 -106 -6z"/>
<path d="M51531 16933 c-26 -9 -67 -37 -97 -67 -91 -88 -107 -212 -44 -323 87
-151 317 -185 450 -66 68 61 94 120 94 208 0 81 -22 133 -80 189 -72 70 -217
96 -323 59z"/>
<path d="M75397 16936 c-125 -45 -195 -151 -185 -280 12 -150 127 -249 288
-249 116 0 202 46 257 140 31 53 42 154 23 222 -17 64 -100 144 -170 165 -65
19 -161 20 -213 2z"/>
<path d="M44980 15480 l0 -1360 220 0 220 0 0 121 0 121 68 -61 c78 -72 205
-140 318 -173 70 -20 100 -23 269 -22 164 0 201 3 269 22 284 79 490 246 611
497 130 268 138 626 20 906 -89 211 -252 379 -463 476 -234 109 -550 122 -781
33 -79 -31 -200 -107 -258 -163 l-33 -31 0 497 0 497 -230 0 -230 0 0 -1360z
m1172 219 c200 -41 371 -211 422 -420 21 -87 21 -271 0 -358 -53 -211 -221
-378 -422 -420 -75 -16 -216 -13 -291 4 -204 49 -372 229 -416 447 -69 347
112 670 418 744 66 16 220 17 289 3z"/>
<path d="M58513 16709 c-499 -72 -921 -413 -1072 -866 -52 -156 -65 -248 -65
-443 1 -191 19 -309 70 -452 153 -424 509 -729 968 -829 121 -27 307 -39 441
-29 343 25 610 136 830 343 l80 76 -155 149 -155 149 -50 -50 c-108 -106 -250
-187 -403 -229 -64 -17 -105 -21 -237 -21 -139 0 -172 4 -256 26 -319 84 -545
309 -631 628 -32 121 -32 365 1 488 98 368 381 606 771 651 175 21 358 -6 505
-74 90 -42 150 -81 237 -157 l66 -59 151 142 c176 164 173 141 40 256 -181
158 -397 256 -649 297 -104 16 -382 19 -487 4z"/>
<path d="M27150 15414 c-316 -701 -576 -1280 -578 -1285 -2 -5 95 -9 241 -9
l245 0 128 300 128 300 637 0 c497 0 639 -3 646 -12 5 -7 65 -142 133 -300
l124 -288 249 0 c195 0 248 3 244 13 -5 12 -788 1745 -1024 2267 l-129 285
-235 3 -234 2 -575 -1276z m1048 231 l238 -550 -475 -3 c-261 -1 -476 0 -478
2 -3 2 103 254 234 560 131 306 239 553 241 549 1 -5 109 -255 240 -558z"/>
<path d="M39980 15406 l0 -1286 235 0 235 0 0 375 0 375 343 0 342 0 260 -375
260 -374 258 -1 258 0 -54 78 c-30 42 -163 232 -295 421 l-241 344 61 29 c278
131 451 378 477 679 45 532 -238 884 -799 995 -72 14 -178 17 -712 21 l-628 4
0 -1285z m1139 874 c347 -31 525 -202 525 -505 0 -256 -124 -414 -380 -486
-73 -21 -105 -23 -446 -27 l-368 -4 0 509 c0 280 3 513 7 516 10 11 535 8 662
-3z"/>
<path d="M49920 16285 l0 -225 -160 0 -160 0 0 -180 0 -180 159 0 159 0 4
-542 c4 -514 6 -547 26 -619 32 -116 76 -195 151 -269 78 -77 162 -121 288
-151 75 -18 109 -20 238 -16 126 3 163 8 228 30 86 28 190 86 183 102 -2 5
-30 75 -61 155 -31 80 -59 148 -61 151 -2 3 -29 -7 -61 -23 -159 -78 -345 -54
-419 54 -52 74 -54 101 -54 635 l0 493 265 0 265 0 0 180 0 180 -262 2 -263 3
-3 223 -2 222 -230 0 -230 0 0 -225z"/>
<path d="M76390 16285 l0 -225 -160 0 -160 0 0 -180 0 -180 159 0 160 0 3
-542 c4 -517 5 -547 25 -619 61 -219 198 -357 414 -416 50 -14 101 -18 239
-17 162 0 181 2 255 27 87 28 175 79 175 99 0 7 -23 72 -51 143 -28 72 -55
140 -60 152 l-8 22 -59 -30 c-78 -41 -181 -56 -264 -41 -85 16 -135 53 -173
127 l-30 59 -3 518 -3 518 266 0 265 0 0 180 0 180 -265 0 -265 0 0 225 0 225
-230 0 -230 0 0 -225z"/>
<path d="M30110 16086 c-169 -26 -298 -74 -405 -151 -162 -115 -235 -257 -235
-458 0 -152 38 -247 136 -344 114 -112 250 -162 609 -223 297 -51 390 -80 434
-136 60 -77 21 -203 -79 -254 -72 -37 -192 -53 -344 -47 -78 3 -172 12 -211
20 -146 32 -303 90 -385 142 -22 14 -42 25 -45 25 -3 0 -44 -77 -91 -172 -98
-196 -100 -174 16 -233 199 -100 458 -156 729 -156 238 0 393 31 546 106 227
113 335 273 335 499 0 162 -37 254 -140 349 -110 102 -232 146 -586 211 -333
62 -428 98 -465 179 -23 53 -23 81 0 133 26 56 84 101 166 127 62 19 90 22
245 21 154 -1 186 -4 272 -27 53 -14 136 -44 184 -66 48 -23 88 -41 90 -41 2
0 43 77 90 171 66 133 83 174 72 180 -65 42 -271 108 -418 134 -127 22 -409
28 -520 11z"/>
<path d="M32434 16085 c-176 -32 -304 -94 -416 -204 l-58 -55 0 127 0 127
-220 0 -220 0 0 -1335 0 -1335 230 0 230 0 0 470 0 471 63 -53 c126 -107 246
-164 399 -188 100 -16 350 -8 433 15 388 105 647 389 710 780 86 527 -173 993
-635 1143 -152 50 -364 65 -516 37z m274 -390 c197 -47 354 -206 409 -415 23
-89 23 -273 0 -360 -56 -210 -212 -369 -409 -415 -75 -17 -216 -19 -290 -4
-208 43 -374 213 -429 439 -19 78 -16 260 5 340 56 206 216 369 409 416 72 17
229 17 305 -1z"/>
<path d="M36046 16089 c-189 -28 -316 -88 -433 -206 l-83 -82 0 139 0 140
-215 0 -215 0 0 -980 0 -980 231 0 230 0 -3 538 c-3 498 -2 542 16 607 30 114
72 191 140 259 105 104 228 149 409 149 l107 1 0 213 0 213 -62 -1 c-35 -1
-90 -5 -122 -10z"/>
<path d="M37304 16085 c-423 -65 -735 -372 -809 -794 -8 -46 -15 -134 -15
-196 0 -512 327 -891 845 -980 116 -20 353 -20 465 -1 205 36 367 114 497 238
l62 60 -121 139 c-66 77 -122 139 -124 139 -2 0 -31 -22 -65 -49 -282 -228
-761 -204 -979 47 -47 54 -106 169 -116 225 l-6 37 765 0 764 0 7 38 c9 56 7
157 -5 257 -48 388 -287 689 -639 803 -152 50 -354 64 -526 37z m331 -367
c171 -36 332 -185 385 -356 36 -114 100 -102 -535 -102 l-554 0 6 33 c11 58
51 156 84 204 133 192 361 274 614 221z"/>
<path d="M43305 16086 c-162 -27 -290 -75 -421 -161 -342 -222 -497 -634 -404
-1067 83 -383 393 -672 800 -744 110 -19 321 -19 432 1 318 55 586 249 720
520 78 155 103 274 102 475 -1 134 -5 169 -28 255 -48 183 -127 319 -261 450
-131 128 -305 219 -500 260 -105 23 -336 28 -440 11z m344 -391 c183 -44 335
-188 398 -379 23 -71 26 -97 26 -216 0 -119 -3 -145 -26 -216 -63 -191 -215
-335 -398 -379 -81 -19 -226 -19 -307 0 -197 47 -354 206 -408 416 -23 87 -22
272 0 359 54 205 213 368 402 414 79 19 234 19 313 1z"/>
<path d="M48185 16086 c-367 -60 -649 -277 -778 -596 -98 -243 -95 -554 8
-801 125 -299 405 -515 745 -575 100 -17 309 -19 406 -4 359 57 640 269 776
586 55 129 72 224 72 404 0 140 -3 179 -23 255 -93 362 -352 614 -730 712
-120 30 -351 40 -476 19z m343 -391 c210 -50 378 -232 417 -452 43 -237 -13
-443 -158 -588 -117 -117 -236 -165 -412 -165 -175 0 -294 48 -410 165 -118
119 -166 248 -166 445 0 129 18 215 67 312 67 133 210 248 350 282 78 19 234
19 312 1z"/>
<path d="M53168 16085 c-98 -16 -241 -61 -320 -101 -204 -102 -375 -285 -461
-494 -75 -181 -94 -406 -52 -611 83 -398 394 -691 814 -764 123 -22 343 -20
456 4 255 53 462 193 578 390 l26 45 -176 102 -176 102 -44 -59 c-55 -72 -147
-140 -239 -175 -91 -35 -254 -44 -358 -20 -246 58 -404 243 -437 511 -40 330
141 611 437 681 104 24 267 15 358 -20 92 -35 184 -103 239 -175 l44 -59 176
102 176 103 -37 63 c-101 172 -314 315 -542 365 -105 23 -352 28 -462 10z"/>
<path d="M55105 16089 c-124 -16 -228 -47 -332 -99 -258 -127 -376 -361 -319
-631 19 -88 54 -155 113 -214 126 -125 245 -171 617 -235 381 -65 455 -99 463
-212 9 -109 -65 -182 -218 -214 -110 -24 -350 -14 -485 20 -126 31 -218 66
-313 117 -40 22 -75 38 -76 37 -2 -2 -41 -80 -89 -175 l-85 -172 62 -34 c204
-115 477 -177 773 -177 247 0 405 33 568 118 231 121 341 327 306 571 -18 127
-65 211 -161 286 -116 91 -229 129 -562 190 -402 72 -484 117 -475 257 5 74
38 117 121 157 83 41 182 55 337 48 180 -8 302 -37 439 -107 62 -31 65 -31 78
-14 19 26 163 310 163 322 0 15 -148 78 -246 105 -49 14 -132 33 -184 42 -112
20 -395 28 -495 14z"/>
<path d="M60864 16086 c-602 -98 -954 -623 -824 -1228 82 -383 393 -672 800
-744 110 -19 321 -19 432 1 318 55 586 249 720 520 78 155 103 274 102 475 -1
134 -5 169 -28 255 -48 183 -127 319 -261 450 -131 128 -305 219 -500 260
-106 23 -336 28 -441 11z m345 -391 c183 -44 335 -188 398 -379 23 -71 26 -97
26 -216 0 -119 -3 -145 -26 -216 -63 -191 -215 -335 -398 -379 -81 -19 -226
-19 -307 0 -197 47 -355 207 -408 415 -23 88 -23 273 0 359 53 205 213 369
402 415 79 19 234 19 313 1z"/>
<path d="M63439 16085 c-155 -29 -291 -95 -396 -190 l-63 -57 0 121 0 121
-220 0 -220 0 0 -980 0 -980 230 0 230 0 0 550 c0 609 3 644 62 770 38 78 132
176 201 208 88 41 163 55 272 50 124 -7 195 -32 265 -95 61 -54 96 -113 124
-202 19 -63 20 -96 24 -673 l3 -608 230 0 229 0 0 553 c0 433 3 566 14 617 42
193 139 316 304 381 49 20 75 23 187 23 112 0 138 -3 187 -23 74 -29 156 -104
191 -173 61 -123 61 -117 65 -775 l3 -603 230 0 231 0 -5 643 c-5 690 -7 713
-61 867 -85 245 -286 407 -568 456 -110 19 -316 14 -416 -10 -170 -42 -323
-126 -432 -237 l-61 -62 -16 24 c-9 13 -48 56 -88 96 -82 82 -190 142 -314
175 -101 26 -316 33 -422 13z"/>
<path d="M67303 16086 c-171 -33 -299 -96 -415 -204 l-48 -45 0 122 0 121
-220 0 -220 0 0 -980 0 -980 230 0 229 0 3 578 c3 513 6 584 21 637 56 192
186 318 366 356 81 17 233 6 303 -20 105 -41 187 -134 231 -264 21 -60 22 -82
25 -674 l3 -613 229 0 230 0 0 544 c0 610 3 647 66 774 64 130 184 224 322
253 82 17 233 7 304 -20 79 -30 159 -105 198 -185 56 -112 59 -162 60 -793 l0
-573 230 0 230 0 0 573 c0 314 -5 620 -10 678 -22 231 -86 388 -209 509 -118
117 -234 175 -408 205 -313 55 -643 -39 -845 -239 -54 -55 -71 -67 -78 -55
-78 126 -236 235 -406 280 -102 27 -317 35 -421 15z"/>
<path d="M73706 16090 c-171 -27 -316 -91 -435 -191 l-71 -59 0 120 0 120
-220 0 -220 0 0 -980 0 -980 229 0 230 0 3 578 3 577 26 76 c61 180 184 292
366 335 96 22 268 15 343 -15 119 -48 199 -133 243 -261 22 -64 22 -75 25
-677 l3 -613 230 0 230 0 -3 658 -4 657 -26 98 c-78 286 -256 464 -536 538
-89 24 -319 34 -416 19z"/>
<path d="M34040 15100 l0 -980 230 0 230 0 0 980 0 980 -230 0 -230 0 0 -980z"/>
<path d="M51410 15100 l0 -980 230 0 230 0 0 980 0 980 -230 0 -230 0 0 -980z"/>
<path d="M70252 15423 c3 -654 3 -659 27 -748 84 -322 302 -518 632 -566 118
-17 335 -7 429 21 108 31 235 100 313 171 l67 61 0 -121 0 -121 220 0 220 0 0
980 0 980 -229 0 -230 0 -3 -577 -3 -578 -27 -77 c-77 -230 -249 -348 -505
-348 -190 0 -324 74 -398 220 -52 103 -55 136 -55 773 l0 587 -231 0 -230 0 3
-657z"/>
<path d="M75270 15100 l0 -980 230 0 230 0 0 980 0 980 -230 0 -230 0 0 -980z"/>
<path d="M77564 16072 c3 -5 197 -449 431 -986 l425 -978 -44 -91 c-76 -158
-154 -227 -281 -247 -115 -19 -257 21 -357 101 l-37 29 -90 -168 -91 -167 32
-28 c51 -44 184 -104 283 -128 122 -30 306 -30 418 0 200 53 332 157 449 355
22 38 181 393 353 790 172 397 391 902 487 1124 l175 402 -221 0 -221 -1 -304
-712 c-167 -392 -307 -715 -311 -720 -3 -4 -144 315 -312 710 l-306 718 -242
3 c-134 1 -239 -1 -236 -6z"/>
</g>
</svg>
